<mxfile host="app.diagrams.net" modified="2020-10-02T16:25:58.100Z" agent="5.0 (Windows)" etag="wNaTQNouhKW16dbYVXUD" version="13.7.7" type="github">
  <diagram id="schZW7jJ0T7BrjeHntlN" name="Page-1">
    <mxGraphModel dx="1422" dy="802" grid="1" gridSize="10" guides="1" tooltips="1" connect="1" arrows="1" fold="1" page="1" pageScale="1" pageWidth="827" pageHeight="1169" math="0" shadow="0">
      <root>
        <mxCell id="0" />
        <mxCell id="1" parent="0" />
        <mxCell id="j0BSqw5cxHRsi-WtKrp--18" style="edgeStyle=orthogonalEdgeStyle;rounded=0;orthogonalLoop=1;jettySize=auto;html=1;exitX=1;exitY=0.5;exitDx=0;exitDy=0;entryX=0;entryY=0.5;entryDx=0;entryDy=0;startArrow=classic;startFill=1;" edge="1" parent="1" source="j0BSqw5cxHRsi-WtKrp--3" target="j0BSqw5cxHRsi-WtKrp--4">
          <mxGeometry relative="1" as="geometry" />
        </mxCell>
        <mxCell id="j0BSqw5cxHRsi-WtKrp--3" value="LIB" style="rounded=0;whiteSpace=wrap;html=1;fillColor=#fff2cc;strokeColor=#d6b656;" vertex="1" parent="1">
          <mxGeometry x="80" y="35" width="200" height="550" as="geometry" />
        </mxCell>
        <mxCell id="j0BSqw5cxHRsi-WtKrp--2" value="Scraper" style="rounded=0;whiteSpace=wrap;html=1;fillColor=#dae8fc;strokeColor=#6c8ebf;" vertex="1" parent="1">
          <mxGeometry x="120" y="70" width="120" height="60" as="geometry" />
        </mxCell>
        <mxCell id="j0BSqw5cxHRsi-WtKrp--20" value="" style="edgeStyle=orthogonalEdgeStyle;rounded=0;orthogonalLoop=1;jettySize=auto;html=1;startArrow=classic;startFill=1;" edge="1" parent="1" source="j0BSqw5cxHRsi-WtKrp--4" target="j0BSqw5cxHRsi-WtKrp--3">
          <mxGeometry relative="1" as="geometry" />
        </mxCell>
        <mxCell id="j0BSqw5cxHRsi-WtKrp--22" style="edgeStyle=orthogonalEdgeStyle;rounded=0;orthogonalLoop=1;jettySize=auto;html=1;entryX=0;entryY=0.5;entryDx=0;entryDy=0;startArrow=classic;startFill=1;" edge="1" parent="1" source="j0BSqw5cxHRsi-WtKrp--4" target="j0BSqw5cxHRsi-WtKrp--19">
          <mxGeometry relative="1" as="geometry" />
        </mxCell>
        <mxCell id="j0BSqw5cxHRsi-WtKrp--4" value="&lt;div align=&quot;center&quot;&gt;Commute class&lt;/div&gt;" style="rounded=0;whiteSpace=wrap;html=1;fillColor=#fff2cc;strokeColor=#d6b656;align=center;" vertex="1" parent="1">
          <mxGeometry x="320" y="35" width="200" height="550" as="geometry" />
        </mxCell>
        <mxCell id="j0BSqw5cxHRsi-WtKrp--7" value="Car" style="rounded=0;whiteSpace=wrap;html=1;fillColor=#f8cecc;strokeColor=#b85450;" vertex="1" parent="1">
          <mxGeometry x="360" y="360" width="120" height="60" as="geometry" />
        </mxCell>
        <mxCell id="j0BSqw5cxHRsi-WtKrp--8" value="Train" style="rounded=0;whiteSpace=wrap;html=1;fillColor=#f8cecc;strokeColor=#b85450;" vertex="1" parent="1">
          <mxGeometry x="360" y="60" width="120" height="60" as="geometry" />
        </mxCell>
        <mxCell id="j0BSqw5cxHRsi-WtKrp--9" value="Bike" style="rounded=0;whiteSpace=wrap;html=1;fillColor=#f8cecc;strokeColor=#b85450;" vertex="1" parent="1">
          <mxGeometry x="360" y="190" width="120" height="60" as="geometry" />
        </mxCell>
        <mxCell id="j0BSqw5cxHRsi-WtKrp--19" value="&lt;div align=&quot;center&quot;&gt;email&lt;/div&gt;" style="rounded=0;whiteSpace=wrap;html=1;fillColor=#fff2cc;strokeColor=#d6b656;align=center;" vertex="1" parent="1">
          <mxGeometry x="570" y="35" width="200" height="550" as="geometry" />
        </mxCell>
        <mxCell id="j0BSqw5cxHRsi-WtKrp--21" value="" style="edgeStyle=orthogonalEdgeStyle;rounded=0;orthogonalLoop=1;jettySize=auto;html=1;startArrow=classic;startFill=1;" edge="1" parent="1">
          <mxGeometry relative="1" as="geometry">
            <mxPoint x="320" y="310" as="sourcePoint" />
            <mxPoint x="280" y="310" as="targetPoint" />
          </mxGeometry>
        </mxCell>
        <mxCell id="j0BSqw5cxHRsi-WtKrp--23" value="driver" style="rounded=0;whiteSpace=wrap;html=1;fillColor=#d5e8d4;strokeColor=#82b366;" vertex="1" parent="1">
          <mxGeometry x="360" y="670" width="120" height="60" as="geometry" />
        </mxCell>
        <mxCell id="j0BSqw5cxHRsi-WtKrp--25" value="" style="endArrow=classic;html=1;exitX=0.5;exitY=1;exitDx=0;exitDy=0;" edge="1" parent="1" source="j0BSqw5cxHRsi-WtKrp--4" target="j0BSqw5cxHRsi-WtKrp--23">
          <mxGeometry width="50" height="50" relative="1" as="geometry">
            <mxPoint x="390" y="460" as="sourcePoint" />
            <mxPoint x="440" y="410" as="targetPoint" />
          </mxGeometry>
        </mxCell>
        <mxCell id="j0BSqw5cxHRsi-WtKrp--26" value="" style="endArrow=classic;html=1;exitX=0.5;exitY=1;exitDx=0;exitDy=0;entryX=0;entryY=0.5;entryDx=0;entryDy=0;" edge="1" parent="1" source="j0BSqw5cxHRsi-WtKrp--3" target="j0BSqw5cxHRsi-WtKrp--23">
          <mxGeometry width="50" height="50" relative="1" as="geometry">
            <mxPoint x="210" y="670" as="sourcePoint" />
            <mxPoint x="260" y="620" as="targetPoint" />
          </mxGeometry>
        </mxCell>
        <mxCell id="j0BSqw5cxHRsi-WtKrp--27" value="" style="endArrow=classic;html=1;exitX=0.545;exitY=0.998;exitDx=0;exitDy=0;exitPerimeter=0;entryX=1;entryY=0.5;entryDx=0;entryDy=0;" edge="1" parent="1" source="j0BSqw5cxHRsi-WtKrp--19" target="j0BSqw5cxHRsi-WtKrp--23">
          <mxGeometry width="50" height="50" relative="1" as="geometry">
            <mxPoint x="560" y="670" as="sourcePoint" />
            <mxPoint x="610" y="620" as="targetPoint" />
          </mxGeometry>
        </mxCell>
      </root>
    </mxGraphModel>
  </diagram>
</mxfile>
